<?xml version="1.0" encoding="utf-8"?>
<!-- Generator: Adobe Illustrator 22.1.0, SVG Export Plug-In . SVG Version: 6.00 Build 0)  -->
<svg version="1.1" id="Layer_1" xmlns="http://www.w3.org/2000/svg" xmlns:xlink="http://www.w3.org/1999/xlink" x="0px" y="0px"
	 viewBox="0 0 76 21.7" style="enable-background:new 0 0 76 21.7;" xml:space="preserve">
<g>
	<path d="M8.1,6.3c0-0.1,0.1-0.2,0.2-0.2h0.3c0.1,0,0.2,0.1,0.2,0.2v8.5C8.8,15,8.7,15,8.6,15H8.3c-0.1,0-0.1,0-0.2-0.1l-6-7.7v7.5
		C2.1,15,2,15,1.8,15H1.6c-0.1,0-0.2-0.1-0.2-0.2V6.3c0-0.1,0-0.1,0-0.1c0,0,0-0.1,0.1-0.1c0,0,0.1,0,0.2,0c0.1,0,0.2,0,0.3,0
		c0,0,0.1,0,0.1,0.1c0.5,0.6,1,1.2,1.5,1.9c0.5,0.6,1,1.3,1.6,1.9s1,1.3,1.6,1.9c0.5,0.6,1,1.3,1.5,1.9V6.3z"/>
	<path d="M15.4,6.1c0.2,0,0.2,0.1,0.2,0.2v0.3c0,0.1,0,0.1-0.1,0.2s-0.1,0.1-0.2,0.1h-5.2V10h4.2c0.1,0,0.1,0,0.2,0.1
		s0.1,0.1,0.1,0.2v0.3c0,0.1,0,0.1-0.1,0.2c0,0-0.1,0.1-0.2,0.1h-4.2v3.5h5.3c0.2,0,0.2,0.1,0.2,0.2v0.3c0,0.1-0.1,0.2-0.2,0.2H9.6
		c-0.1,0-0.1,0-0.1-0.1c0,0-0.1-0.1-0.1-0.2V6.3c0-0.1,0-0.1,0.1-0.2c0,0,0.1-0.1,0.2-0.1H15.4z"/>
	<path d="M21.7,6.1c0.2,0,0.2,0.1,0.2,0.2v0.3c0,0.1,0,0.1-0.1,0.2s-0.1,0.1-0.2,0.1h-5.2V10h4.2c0.1,0,0.1,0,0.2,0.1
		s0.1,0.1,0.1,0.2v0.3c0,0.1,0,0.1-0.1,0.2c0,0-0.1,0.1-0.2,0.1h-4.2v3.5h5.3c0.2,0,0.2,0.1,0.2,0.2v0.3c0,0.1-0.1,0.2-0.2,0.2h-5.9
		c-0.1,0-0.1,0-0.1-0.1c0,0-0.1-0.1-0.1-0.2V6.3c0-0.1,0-0.1,0.1-0.2c0,0,0.1-0.1,0.2-0.1H21.7z"/>
	<path d="M29,7C29,7,29.1,7.1,29.1,7.2c0,0,0,0.1,0,0.1l-0.2,0.2c0,0-0.1,0.1-0.1,0.1s-0.1,0-0.1,0c-0.1,0-0.1,0-0.2-0.1
		c-0.3-0.3-0.7-0.4-1.1-0.6c-0.4-0.1-0.8-0.2-1.2-0.2c-0.4,0-0.7,0-1.1,0.1c-0.3,0.1-0.6,0.2-0.9,0.4c-0.3,0.2-0.6,0.4-0.8,0.6
		c-0.2,0.2-0.4,0.5-0.6,0.8s-0.3,0.6-0.4,0.9c-0.1,0.3-0.1,0.7-0.1,1c0,0.3,0,0.7,0.1,1c0.1,0.3,0.2,0.6,0.4,0.9
		c0.2,0.3,0.4,0.6,0.6,0.8s0.5,0.5,0.8,0.6c0.3,0.2,0.6,0.3,0.9,0.4c0.3,0.1,0.6,0.1,1,0.1c0.2,0,0.4,0,0.6-0.1s0.4-0.1,0.6-0.2
		c0.2-0.1,0.4-0.2,0.6-0.3c0.2-0.1,0.4-0.2,0.6-0.4c0,0,0.1-0.1,0.2-0.1c0.1,0,0.2,0,0.2,0.2l0.1,0.1c0,0,0,0.1,0,0.2
		c0,0.1,0,0.2-0.1,0.2c-0.4,0.3-0.8,0.5-1.3,0.7c-0.5,0.2-1,0.2-1.5,0.2c-0.4,0-0.8-0.1-1.2-0.2c-0.4-0.1-0.8-0.3-1.1-0.5
		s-0.6-0.4-0.9-0.7c-0.3-0.3-0.5-0.6-0.7-0.9c-0.2-0.3-0.4-0.7-0.5-1.1s-0.2-0.8-0.2-1.2c0-0.4,0.1-0.8,0.2-1.2
		C21.8,9,22,8.6,22.2,8.3c0.2-0.3,0.4-0.6,0.7-0.9s0.6-0.5,0.9-0.7c0.3-0.2,0.7-0.4,1.1-0.5C25.3,6.1,25.7,6,26.1,6
		c0.5,0,1,0.1,1.5,0.3C28.1,6.4,28.6,6.7,29,7z"/>
	<path d="M35.9,6.3c0-0.1,0-0.1,0.1-0.2s0.1-0.1,0.2-0.1h0.3c0.1,0,0.1,0,0.2,0.1s0.1,0.1,0.1,0.2v8.5c0,0.1-0.1,0.2-0.2,0.2h-0.3
		c-0.1,0-0.2-0.1-0.2-0.2v-4h-5.7v4c0,0.1-0.1,0.2-0.2,0.2h-0.3c-0.1,0-0.2-0.1-0.2-0.2V6.3c0-0.1,0-0.1,0.1-0.2s0.1-0.1,0.2-0.1
		h0.3c0.1,0,0.1,0,0.2,0.1s0.1,0.1,0.1,0.2v3.8h5.7V6.3z"/>
	<path d="M36.7,14.8c0-0.1,0.1-0.2,0.1-0.3c0-0.1,0.1-0.1,0.1-0.2l3.4-8.1c0,0,0-0.1,0.1-0.1c0,0,0.1-0.1,0.1-0.1h0h0.2h0
		c0.1,0,0.1,0,0.1,0.1c0,0,0.1,0.1,0.1,0.1l3.5,8.5c0,0,0,0,0,0.1s0,0.1,0,0.1c0,0.1-0.1,0.2-0.2,0.2H44c0,0,0,0,0,0s0,0,0,0
		c-0.1,0-0.2-0.1-0.2-0.2l-0.8-2h-4.5c-0.2,0.4-0.3,0.8-0.4,1.1c-0.1,0.3-0.3,0.7-0.4,1c0,0.1-0.1,0.2-0.2,0.2c0,0,0,0-0.1,0h-0.3
		C36.8,15,36.7,15,36.7,14.8C36.7,14.9,36.7,14.9,36.7,14.8C36.7,14.8,36.7,14.8,36.7,14.8z M38.6,12.1h3.9l-2-4.8L38.6,12.1z"/>
	<path d="M47.6,14.8c0,0.2-0.1,0.3-0.3,0.3h-0.1C47,15,47,15,47,14.8V6.4c0-0.1,0-0.1,0.1-0.2c0-0.1,0.1-0.1,0.2-0.1h0.2
		c0.1,0,0.1,0,0.2,0.1c0.1,0,0.1,0.1,0.1,0.2v5l4.8-5.1c0.1-0.1,0.1-0.1,0.2-0.1c0,0,0.1-0.1,0.1-0.1h0.7c0.1,0,0.1,0,0.1,0.1
		c0,0,0,0.1-0.1,0.1c0,0,0,0,0,0l0,0c0,0,0,0,0,0l-3.4,3.5l4.2,5c0.1,0.1,0.1,0.1,0.1,0.2c0,0,0,0.1-0.1,0.1h-0.6c0,0-0.1,0-0.1,0
		c0,0-0.1-0.1-0.1-0.1l-3.8-4.5l-2,2.1V14.8z"/>
	<path d="M59.6,14.3c0.1,0,0.1,0,0.2,0.1s0.1,0.1,0.1,0.2v0.3c0,0.1,0,0.1-0.1,0.2S59.6,15,59.6,15h-5.2c-0.1,0-0.2-0.1-0.2-0.2V6.3
		c0-0.1,0-0.1,0.1-0.2s0.1-0.1,0.2-0.1h0.3c0.1,0,0.1,0,0.2,0.1c0,0,0.1,0.1,0.1,0.2v8H59.6z"/>
	<path d="M65.8,6.1c0.2,0,0.2,0.1,0.2,0.2v0.3c0,0.1,0,0.1-0.1,0.2s-0.1,0.1-0.2,0.1h-5.2V10h4.2c0.1,0,0.1,0,0.2,0.1
		s0.1,0.1,0.1,0.2v0.3c0,0.1,0,0.1-0.1,0.2c0,0-0.1,0.1-0.2,0.1h-4.2v3.5h5.3c0.2,0,0.2,0.1,0.2,0.2v0.3c0,0.1-0.1,0.2-0.2,0.2H60
		c-0.1,0-0.1,0-0.1-0.1c0,0-0.1-0.1-0.1-0.2V6.3c0-0.1,0-0.1,0.1-0.2c0,0,0.1-0.1,0.2-0.1H65.8z"/>
	<path d="M72,6.1c0.2,0,0.2,0.1,0.2,0.2v0.3c0,0.1,0,0.1-0.1,0.2S72.1,6.9,72,6.9h-5.2V10H71c0.1,0,0.1,0,0.2,0.1s0.1,0.1,0.1,0.2
		v0.3c0,0.1,0,0.1-0.1,0.2c0,0-0.1,0.1-0.2,0.1h-4.2v3.5h5.3c0.2,0,0.2,0.1,0.2,0.2v0.3c0,0.1-0.1,0.2-0.2,0.2h-5.9
		c-0.1,0-0.1,0-0.1-0.1c0,0-0.1-0.1-0.1-0.2V6.3c0-0.1,0-0.1,0.1-0.2c0,0,0.1-0.1,0.2-0.1H72z"/>
</g>
</svg>
