<?xml version="1.0" encoding="utf-8"?>
<!-- Generator: Adobe Illustrator 22.1.0, SVG Export Plug-In . SVG Version: 6.00 Build 0)  -->
<svg version="1.1" id="Layer_1" xmlns="http://www.w3.org/2000/svg" xmlns:xlink="http://www.w3.org/1999/xlink" x="0px" y="0px"
	 viewBox="0 0 87.9 17.5" style="enable-background:new 0 0 87.9 17.5;" xml:space="preserve">
<g>
	<path d="M9.9,10.2V3.6h2.4v12.1L5.1,8.9v6.6H2.7V3.4L9.9,10.2z"/>
	<path d="M19.3,3.6V6h-4.7v2.4h3.6v2.4h-3.6v2.4h4.7v2.4h-7.1V3.6H19.3z"/>
	<path d="M26,3.6V6h-4.7v2.4h3.6v2.4h-3.6v2.4H26v2.4h-7.1V3.6H26z"/>
	<path d="M31,15.6c-1.7,0-3.1-0.6-4.2-1.7c-1.2-1.2-1.8-2.6-1.8-4.2c0-1.6,0.6-3.1,1.8-4.2C28,4.2,29.4,3.6,31,3.6l0,0
		c1.8,0,3.3,0.8,4.2,1.8l-1.7,1.7C32.9,6.4,32,6,31,6c-1,0-1.8,0.4-2.5,1.1c-0.7,0.7-1.1,1.6-1.1,2.5c0,1,0.4,1.8,1.1,2.5
		c0.7,0.7,1.5,1,2.5,1c1,0,1.8-0.4,2.5-1.1l1.7,1.7C34.3,14.8,32.9,15.6,31,15.6z"/>
	<path d="M37.2,3.7v4.7h3.9V3.7h2.4v11.8h-2.4v-4.7h-3.9v4.7h-2.4V3.7H37.2z"/>
	<path d="M48.4,3.4l5.4,12h-2.6l-0.8-1.8h-4l-0.8,1.8H43L48.4,3.4z M49.5,11.6l-1.1-2.5l-1.1,2.5H49.5z"/>
	<path d="M58.6,3.7v5.2l3-5.2h2.7l-3.5,6l4.1,5.8H62l-3.4-5v5h-2.4V3.7H58.6z"/>
	<path d="M66.8,3.7v9.4h4.7v2.4h-7.1V3.7H66.8z"/>
	<path d="M78.2,3.6V6h-4.7v2.4H77v2.4h-3.6v2.4h4.7v2.4h-7.1V3.6H78.2z"/>
	<path d="M84.8,3.6V6h-4.7v2.4h3.6v2.4h-3.6v2.4h4.7v2.4h-7.1V3.6H84.8z"/>
</g>
</svg>
