<?xml version="1.0" encoding="utf-8"?>
<!-- Generator: Adobe Illustrator 22.1.0, SVG Export Plug-In . SVG Version: 6.00 Build 0)  -->
<svg version="1.1" id="Layer_1" xmlns="http://www.w3.org/2000/svg" xmlns:xlink="http://www.w3.org/1999/xlink" x="0px" y="0px"
	 viewBox="0 0 467 461" style="enable-background:new 0 0 467 461;" xml:space="preserve">
<g>
	<path d="M450.3,23c0.3-0.2,0.5-0.4,0.8-0.5C450.8,22.7,450.6,22.9,450.3,23z"/>
	<path d="M449.6,23.5c0,0,0.1,0,0.1-0.1C449.7,23.4,449.7,23.5,449.6,23.5z"/>
	<path d="M451.1,22.5c0.1-0.1,0.2-0.1,0.3-0.2C451.3,22.3,451.2,22.4,451.1,22.5z"/>
	<path d="M449.1,23.8c0.1-0.1,0.3-0.2,0.5-0.3C449.5,23.6,449.3,23.7,449.1,23.8z"/>
	<path d="M449,23.9c0.1,0,0.1-0.1,0.2-0.1C449,23.9,449,23.9,449,23.9z"/>
	<path d="M449.7,23.4c0.2-0.1,0.4-0.2,0.6-0.4C450.1,23.1,449.9,23.3,449.7,23.4z"/>
	<path d="M452.6,21.4c0.2-0.1,0.3-0.2,0.5-0.3C453,21.2,452.8,21.3,452.6,21.4z"/>
	<path d="M453.1,21.1c1.1-0.8,2.2-1.5,2.8-1.9C455.4,19.5,454.5,20.1,453.1,21.1z"/>
	<path d="M395.8,309.3c-0.8-24.4-6.8-41.1-12.2-51.5l2.4-31.9l70-204.1c-9.2,6.3-31,16.5-56.6,23.5c-23.4,6.4-63.1,20.4-87.7,49.8
		L311,94H161l-0.6,1c-24.6-29.4-64.2-43.3-87.5-49.7c-25.6-7.1-47.4-17.2-56.6-23.5l70,204.1l2.4,31.5c-5.6,10.5-11.8,27.6-12.5,53
		c-5,9.9-11.7,21.5-20.9,35c0,0,18.7-0.6,37.8-10.6c-4.3,22.7-5.2,58,10.4,105.5c0,0,14.3-58.2,39.4-79.2
		c-6.3,10.2-13.4,31.6,0.8,68.2c0,0,6.3-14.8,15.8-32.4c1,5.2,3,10.6,6.4,15.9c0,0,2.5-8.2,6.9-18.4c-0.9,9.9-0.3,21.5,2.5,35
		c0,0,30-75.6,60.6-75.6s60.6,75.6,60.6,75.6c2.9-13.8,3.4-25.7,2.4-35.7c4.4,10.6,6.9,19.2,6.9,19.2c3.4-5.2,5.4-10.6,6.5-15.8
		c9.5,17.5,15.8,32.3,15.8,32.3c14.2-36.6,7.1-58,0.8-68.2c25.1,21,39.4,79.2,39.4,79.2c15.7-47.7,14.7-83.1,10.3-105.8
		c19.3,10.3,38.4,10.9,38.4,10.9C407.7,331.4,400.8,319.4,395.8,309.3z"/>
	<path d="M455.9,19.2C456.6,18.7,456.5,18.8,455.9,19.2L455.9,19.2z"/>
	<path d="M451.4,22.3c0.3-0.2,0.6-0.4,0.8-0.6C451.9,21.9,451.7,22.1,451.4,22.3z"/>
	<path d="M452.2,21.7c0.1-0.1,0.3-0.2,0.4-0.3C452.5,21.5,452.3,21.6,452.2,21.7z"/>
	<path d="M8.5,23.4c-0.1-0.1-0.2-0.2-0.4-0.2C8.3,23.3,8.4,23.3,8.5,23.4z"/>
	<path d="M8.1,23.2c-0.3-0.2-0.6-0.4-1-0.7C7.5,22.7,7.8,22.9,8.1,23.2z"/>
	<path d="M7.1,22.5c-0.1-0.1-0.2-0.1-0.3-0.2C6.9,22.4,7,22.4,7.1,22.5z"/>
	<path d="M9.3,23.9c0,0-0.1,0-0.2-0.1C9.2,23.9,9.2,23.9,9.3,23.9z"/>
	<path d="M8.6,23.5c0,0-0.1,0-0.1-0.1C8.5,23.4,8.6,23.5,8.6,23.5z"/>
	<path d="M9.1,23.8c-0.2-0.1-0.3-0.2-0.5-0.3C8.8,23.6,9,23.8,9.1,23.8z"/>
	<path d="M2,19C1.8,18.8,1.7,18.8,2,19L2,19z"/>
	<path d="M3,19.7c-0.5-0.4-0.8-0.6-1-0.7C2.2,19.1,2.6,19.4,3,19.7z"/>
	<path d="M3.7,20.1C3.4,20,3.2,19.8,3,19.7C3.2,19.8,3.4,20,3.7,20.1z"/>
	<path d="M5.9,21.7C5,21,4.3,20.5,3.7,20.1C4.4,20.6,5.2,21.1,5.9,21.7z"/>
	<path d="M6.8,22.3c-0.3-0.2-0.6-0.4-0.9-0.6C6.2,21.9,6.5,22.1,6.8,22.3z"/>
</g>
</svg>
