<?xml version="1.0" encoding="utf-8"?>
<!-- Generator: Adobe Illustrator 22.1.0, SVG Export Plug-In . SVG Version: 6.00 Build 0)  -->
<svg version="1.1" id="Layer_1" xmlns="http://www.w3.org/2000/svg" xmlns:xlink="http://www.w3.org/1999/xlink" x="0px" y="0px"
	 viewBox="0 0 32.3 25" style="enable-background:new 0 0 32.3 25;" xml:space="preserve">
<style type="text/css">
	.st0{enable-background:new    ;}
	.st1{fill:#FFFFFF;}
</style>
<ellipse cx="15.8" cy="13.4" rx="8.8" ry="9.1"/>
<g class="st0">
	<path class="st1" d="M11.1,12.2c0.4-0.8,1-1.2,1.8-1.2c0.7,0,1.3,0.2,1.6,0.7c0.4,0.5,0.5,1.1,0.5,1.9V17h-1.4v-3.4
		c0-0.4-0.1-0.8-0.3-1s-0.5-0.3-0.9-0.3s-0.7,0.2-1,0.5s-0.4,0.8-0.4,1.5V17H9.7v-5.8H11L11.1,12.2z"/>
	<path class="st1" d="M18.7,14.2L18,14.7V17h-1.4V8.8H18v4.5l2.3-2.1h1.9l-2.6,2.2l2.7,3.7h-1.7L18.7,14.2z"/>
</g>
</svg>
