<?xml version="1.0" encoding="utf-8"?>
<!-- Generator: Adobe Illustrator 22.1.0, SVG Export Plug-In . SVG Version: 6.00 Build 0)  -->
<svg version="1.1" id="Layer_1" xmlns="http://www.w3.org/2000/svg" xmlns:xlink="http://www.w3.org/1999/xlink" x="0px" y="0px"
	 viewBox="0 0 100 100" style="enable-background:new 0 0 100 100;" xml:space="preserve">
<style type="text/css">
	.st0{enable-background:new    ;}
	.st1{fill:#FFFFFF;}
</style>
<ellipse cx="50" cy="51.5" rx="44" ry="45.5"/>
<g class="st0">
	<path class="st1" d="M26.5,45.5c2-4,5-6,9-6c3.5,0,6.5,1,8,3.5c2,2.5,2.5,5.5,2.5,9.5v17h-7v-17c0-2-0.5-4-1.5-5
		c-1-1-2.5-1.5-4.5-1.5c-2,0-3.5,1-5,2.5c-1.5,1.5-2,4-2,7.5v13.5h-6.5v-29H26L26.5,45.5z"/>
	<path class="st1" d="M64.5,55.5L61,58v11.5h-7v-41h7V51l11.5-10.5H82l-13,11L82.5,70H74L64.5,55.5z"/>
</g>
</svg>
