<?xml version="1.0" encoding="utf-8"?>
<!-- Generator: Adobe Illustrator 22.1.0, SVG Export Plug-In . SVG Version: 6.00 Build 0)  -->
<svg version="1.1" id="Layer_1" xmlns="http://www.w3.org/2000/svg" xmlns:xlink="http://www.w3.org/1999/xlink" x="0px" y="0px"
	 viewBox="0 0 62.5 31.1" style="enable-background:new 0 0 62.5 31.1;" xml:space="preserve">
<g>
	<path d="M5,24.9c0-0.6,0-1.2,0-2s0.1-1.6,0.2-2.5s0.2-1.8,0.3-2.7C5.7,16.8,5.9,15.9,6,15c0.2-0.9,0.3-1.7,0.5-2.4
		c0.2-0.8,0.4-1.4,0.6-2c0.1-0.3,0.2-0.6,0.3-0.9s0.3-0.5,0.4-0.6C8,9.1,8.1,9.2,8.3,9.3c0.1,0.1,0.3,0.5,0.4,1
		c0.1,0.5,0.2,1,0.2,1.6s0.1,1.3,0.2,2.1c0.1,0.7,0.1,1.5,0.2,2.3c0.1,0.8,0.1,1.6,0.2,2.3c0.1,0.7,0.2,1.4,0.3,2.1
		c0.1,0.7,0.3,1.2,0.4,1.7c0.2,0.4,0.3,0.7,0.5,0.9c0.2,0.2,0.3,0.2,0.5,0.1c0.2-0.1,0.3-0.2,0.5-0.5c0.1-0.3,0.3-0.6,0.4-1
		c0.2-0.6,0.4-1.3,0.6-2.1c0.2-0.8,0.3-1.7,0.5-2.6c0.1-0.9,0.3-1.9,0.4-2.9c0.1-1,0.2-1.9,0.2-2.9c0.1-0.9,0.1-1.8,0.1-2.6
		s0-1.5-0.1-2.2c0-0.2,0-0.3,0-0.4c0-0.1,0.1-0.1,0.1,0s0.1,0.1,0.2,0.2c0.1,0.1,0.1,0.3,0.1,0.4c0.1,0.4,0.1,1,0.1,1.9
		c0,0.8,0,1.7-0.1,2.8c-0.1,1-0.2,2.1-0.3,3.2c-0.1,1.1-0.3,2.2-0.4,3.2c-0.2,1-0.3,1.9-0.5,2.7c-0.2,0.8-0.4,1.4-0.6,1.9
		c-0.2,0.4-0.4,0.7-0.6,0.9c-0.2,0.2-0.4,0.2-0.6,0.2c-0.2,0-0.4-0.2-0.5-0.4s-0.3-0.5-0.4-0.8c-0.2-0.5-0.3-1-0.4-1.7
		s-0.2-1.4-0.3-2.1c-0.1-0.7-0.2-1.5-0.2-2.3C9,15.6,9,14.8,8.9,14.1S8.8,12.7,8.7,12c-0.1-0.6-0.2-1.2-0.2-1.6
		C8.4,10,8.3,9.7,8.2,9.6C8.1,9.5,8,9.5,8,9.6c-0.1,0.1-0.2,0.3-0.2,0.5s-0.1,0.4-0.2,0.7c-0.1,0.4-0.3,1-0.5,1.8
		c-0.2,0.8-0.4,1.7-0.5,2.6c-0.2,1-0.3,2-0.5,3.1c-0.2,1.1-0.3,2.1-0.4,3s-0.2,1.8-0.2,2.6c0,0.7,0,1.3,0.1,1.6c0,0.1,0,0.2,0,0.2
		c0,0-0.1,0-0.2,0c-0.1,0-0.1-0.1-0.2-0.3C5,25.3,5,25.1,5,24.9z"/>
	<path d="M14.8,15.9c-0.1,0.2-0.2,0.4-0.2,0.7c0,0.2,0,0.4,0,0.6c0,0.3,0.1,0.6,0.4,0.6c0.2,0.1,0.5,0.1,0.8,0
		c0.3-0.1,0.8-0.3,1.3-0.6c0.5-0.3,1.1-0.7,1.8-1.3c0.1,0,0.1,0,0.2,0c0,0,0,0.1,0,0.2c-0.7,0.6-1.2,1-1.7,1.3
		c-0.5,0.3-0.9,0.5-1.3,0.6c-0.1,0.1-0.3,0.1-0.5,0.1c-0.2,0-0.3,0-0.5,0s-0.3-0.1-0.4-0.2c-0.1-0.1-0.2-0.2-0.3-0.4
		c-0.1-0.2-0.1-0.4,0-0.6c0-0.2,0.1-0.5,0.2-0.7c0.1-0.2,0.2-0.5,0.3-0.7c0.1-0.2,0.3-0.3,0.5-0.4c0.2-0.1,0.4-0.1,0.5,0
		c0.1,0.1,0,0.3-0.1,0.5C15.3,15.7,15.1,15.8,14.8,15.9z M15.1,15.5c0,0-0.1,0.1-0.1,0.1c0.1,0,0.1-0.1,0.2-0.1s0.1-0.1,0.2-0.2
		c0-0.1,0.1-0.1,0-0.1c0,0,0,0-0.1,0c0,0-0.1,0.1-0.2,0.1C15.1,15.4,15.1,15.5,15.1,15.5z"/>
	<path d="M18.1,15.9c-0.1,0.2-0.2,0.4-0.2,0.7c0,0.2,0,0.4,0,0.6c0,0.3,0.1,0.6,0.4,0.6c0.2,0.1,0.5,0.1,0.8,0
		c0.3-0.1,0.8-0.3,1.3-0.6c0.5-0.3,1.1-0.7,1.8-1.3c0.1,0,0.1,0,0.2,0c0,0,0,0.1,0,0.2c-0.7,0.6-1.2,1-1.7,1.3
		c-0.5,0.3-0.9,0.5-1.3,0.6c-0.1,0.1-0.3,0.1-0.5,0.1c-0.2,0-0.3,0-0.5,0s-0.3-0.1-0.4-0.2c-0.1-0.1-0.2-0.2-0.3-0.4
		c-0.1-0.2-0.1-0.4,0-0.6c0-0.2,0.1-0.5,0.2-0.7c0.1-0.2,0.2-0.5,0.3-0.7c0.1-0.2,0.3-0.3,0.5-0.4c0.2-0.1,0.4-0.1,0.5,0
		c0.1,0.1,0,0.3-0.1,0.5C18.6,15.7,18.4,15.8,18.1,15.9z M18.4,15.5c0,0-0.1,0.1-0.1,0.1c0.1,0,0.1-0.1,0.2-0.1s0.1-0.1,0.2-0.2
		c0-0.1,0.1-0.1,0-0.1c0,0,0,0-0.1,0c0,0-0.1,0.1-0.2,0.1C18.5,15.4,18.4,15.5,18.4,15.5z"/>
	<path d="M22.2,15.3c-0.1,0.1-0.3,0.2-0.4,0.3c-0.1,0.2-0.3,0.3-0.4,0.5c-0.1,0.2-0.2,0.4-0.2,0.7c-0.1,0.2-0.1,0.4,0,0.6
		c0.1,0.2,0.1,0.3,0.3,0.4c0.1,0.1,0.3,0.2,0.4,0.2c0.1,0,0.3,0,0.4,0c0.2,0,0.3-0.1,0.5-0.1c0.2-0.1,0.5-0.2,0.7-0.4
		c0.2-0.2,0.5-0.3,0.7-0.5s0.5-0.4,0.7-0.6c0.2-0.2,0.4-0.4,0.6-0.5c0.1-0.1,0.1-0.1,0.1,0s0,0.1,0,0.1c-0.2,0.2-0.4,0.4-0.6,0.6
		c-0.2,0.2-0.4,0.4-0.7,0.6s-0.5,0.4-0.7,0.5S23,18,22.8,18.1c-0.2,0.1-0.4,0.1-0.6,0.1c-0.2,0-0.4,0-0.6,0c-0.2,0-0.4-0.1-0.5-0.2
		c-0.2-0.1-0.3-0.3-0.3-0.5c-0.1-0.2-0.1-0.5,0-0.7s0.2-0.5,0.3-0.8c0.1-0.2,0.3-0.5,0.5-0.6c0.2-0.2,0.4-0.3,0.6-0.3
		c0.2,0,0.4,0,0.5,0.1c0.1,0.1,0.2,0.2,0.2,0.4c0,0.1-0.1,0.1-0.1,0.1c-0.1,0-0.1,0-0.1-0.1c0-0.1,0-0.2-0.1-0.2
		C22.4,15.2,22.3,15.2,22.2,15.3z"/>
	<path d="M29.6,9.8c-0.3,0.5-0.6,1.1-1,1.6c-0.4,0.5-0.8,1.1-1.2,1.6c-0.4,0.5-0.9,1-1.3,1.5s-0.9,1-1.3,1.4c0,0,0,0.1-0.1,0.4
		c0,0.2-0.1,0.5-0.1,0.8c0,0.3-0.1,0.5-0.1,0.8c0,0.3-0.1,0.4-0.1,0.5c0.2-0.4,0.4-0.8,0.6-1.2c0.2-0.4,0.5-0.8,0.9-1
		c0.1-0.1,0.3-0.2,0.4-0.2c0.1,0,0.2,0.1,0.3,0.4c0,0.2,0,0.5-0.1,0.8c-0.1,0.3-0.2,0.6-0.3,0.9c-0.1,0.3-0.2,0.6-0.3,0.9
		c-0.1,0.3-0.1,0.6-0.1,0.9c0,0.2,0,0.3,0.1,0.3s0.2,0,0.3,0c0.1,0,0.2-0.1,0.3-0.2c0.1-0.1,0.2-0.2,0.2-0.2
		c0.3-0.2,0.6-0.5,0.9-0.8c0.3-0.3,0.6-0.6,0.9-0.9c0.3-0.3,0.6-0.6,0.9-1c0.3-0.3,0.6-0.6,0.8-0.9c0-0.1,0.1-0.1,0.1,0
		c0.1,0,0.1,0.1,0,0.1c-0.3,0.3-0.5,0.6-0.8,0.9c-0.3,0.3-0.6,0.7-0.9,1c-0.3,0.3-0.6,0.6-0.9,1c-0.3,0.3-0.6,0.6-0.9,0.8
		c-0.2,0.1-0.3,0.2-0.5,0.4c-0.2,0.1-0.3,0.2-0.4,0.2c-0.1,0-0.2,0-0.3-0.1c-0.1-0.1-0.1-0.3-0.2-0.6c0-0.2,0-0.4,0.1-0.7
		s0.1-0.5,0.2-0.7c0.1-0.2,0.2-0.5,0.2-0.7c0.1-0.2,0.1-0.4,0.1-0.6c0-0.1,0-0.1,0-0.2s0-0.1,0-0.2c0-0.1,0-0.1-0.1-0.1
		c0,0-0.1,0-0.2,0.1c-0.2,0.1-0.4,0.3-0.5,0.5c-0.2,0.2-0.3,0.4-0.4,0.7c-0.1,0.2-0.3,0.5-0.4,0.7c-0.1,0.2-0.2,0.5-0.3,0.7
		c0,0.1,0,0.2-0.1,0.2s-0.1,0-0.2,0C24,19.1,24,19,24,18.9c0-0.1,0-0.2,0-0.4c0.1-0.8,0.2-1.8,0.4-2.8c0.2-1.1,0.4-2.2,0.7-3.3
		c0.3-1.1,0.6-2.1,1-3.1c0.4-1,0.8-1.8,1.3-2.4c0.3-0.4,0.7-0.8,1.1-1s0.7-0.4,1-0.4s0.6,0,0.8,0.2c0.2,0.2,0.4,0.4,0.4,0.8
		c0.1,0.4,0,0.8-0.1,1.4C30.3,8.4,30.1,9,29.6,9.8z M24.8,15.5c0.8-0.8,1.7-1.8,2.5-2.8c0.8-1,1.5-2.1,2.1-3.1
		c0.5-0.9,0.8-1.7,0.9-2.4s0-1.1-0.2-1.4c-0.2-0.3-0.5-0.3-1-0.1c-0.5,0.2-1,0.6-1.5,1.3c-0.4,0.5-0.7,1.1-1,1.8s-0.6,1.5-0.8,2.2
		c-0.2,0.8-0.4,1.6-0.6,2.3C25.1,14.2,24.9,14.9,24.8,15.5z"/>
	<path d="M34.1,16.1c-0.1,0.1-0.2,0.2-0.4,0.4c-0.2,0.2-0.4,0.4-0.7,0.6c-0.2,0.2-0.5,0.4-0.7,0.6c-0.3,0.2-0.5,0.3-0.7,0.4
		c-0.3,0.1-0.4,0.1-0.5,0S31,18,31,17.8s0-0.3,0.1-0.5c0-0.2,0.1-0.3,0.1-0.4c0-0.1-0.1-0.1-0.1-0.1c-0.1,0-0.3,0.2-0.5,0.5
		c-0.2,0.2-0.4,0.4-0.7,0.6c-0.2,0.2-0.5,0.4-0.7,0.5c-0.3,0.1-0.5,0.2-0.7,0.1c-0.1-0.1-0.2-0.3-0.2-0.5c0-0.2,0-0.5,0.1-0.8
		c0.1-0.3,0.3-0.6,0.5-0.8c0.2-0.3,0.5-0.5,0.8-0.6c0.3-0.1,0.7-0.2,1-0.1c0.1,0,0.2,0.1,0.2,0.1c0,0.1,0,0.1-0.1,0.1
		c-0.3,0-0.6,0.1-0.9,0.2c-0.3,0.1-0.5,0.3-0.7,0.5c-0.2,0.2-0.3,0.4-0.4,0.6s-0.2,0.4-0.2,0.6s0,0.3,0.1,0.3c0.1,0.1,0.2,0.1,0.4,0
		c0.2-0.1,0.4-0.3,0.7-0.5c0.2-0.2,0.5-0.4,0.6-0.6c0.4-0.4,0.6-0.6,0.8-0.7c0.2-0.1,0.3-0.1,0.3,0s0,0.2,0,0.4
		c0,0.2-0.1,0.4-0.1,0.6c0,0.2,0,0.3,0,0.5s0.1,0.2,0.3,0.1c0.2-0.1,0.4-0.2,0.6-0.4c0.3-0.2,0.5-0.4,0.8-0.7
		c0.3-0.2,0.5-0.4,0.6-0.6c0.2-0.2,0.3-0.3,0.3-0.3c0.1-0.1,0.1-0.1,0.2,0S34.1,16,34.1,16.1z"/>
	<path d="M39,8.9c0,0.1,0,0.3,0.1,0.4c0.1,0.1,0.1,0.2,0.2,0.2c0.1,0,0.2,0.1,0.3,0c0.1,0,0.2-0.1,0.4-0.2c0.1,0,0.2,0,0.2,0.1
		c0.1,0,0.1,0.1,0.1,0.1s0,0.1,0,0.2c0,0.1-0.1,0.1-0.2,0.2c-0.2,0.1-0.4,0.1-0.5,0.1c-0.2,0-0.4-0.1-0.5-0.2S39,9.5,38.9,9.3
		c-0.1-0.2-0.1-0.4-0.1-0.6c0-0.2,0.1-0.4,0.3-0.7s0.3-0.5,0.5-0.7c0.2-0.2,0.4-0.4,0.6-0.6c0.2-0.2,0.4-0.3,0.6-0.4
		c0.3-0.2,0.5-0.2,0.6-0.2s0.2,0.2,0.3,0.5c0,0.3,0,0.7-0.1,1.2c-0.1,0.5-0.2,1-0.3,1.6c-0.1,0.6-0.3,1.2-0.4,1.9
		c-0.2,0.7-0.3,1.3-0.5,1.9c-0.2,0.6-0.3,1.2-0.5,1.7c-0.1,0.5-0.2,0.9-0.3,1.2c0.2-0.2,0.5-0.6,0.9-1.1s0.9-1.1,1.5-1.7
		c0.6-0.6,1.2-1.3,1.8-1.9c0.6-0.7,1.2-1.3,1.8-1.9c0.6-0.6,1.1-1.1,1.6-1.5s0.9-0.7,1.2-0.8c0.2-0.1,0.4-0.1,0.6,0
		c0.2,0,0.3,0.1,0.4,0.2c0.1,0.1,0.2,0.3,0.2,0.4c0,0.2,0,0.4-0.1,0.5c-0.1,0.2-0.2,0.3-0.4,0.2S49,8.7,49,8.5
		c0.3-0.3,0.3-0.5,0.2-0.7s-0.3-0.2-0.7-0.2c-0.2,0.1-0.6,0.3-1.1,0.7c-0.5,0.4-1,0.9-1.6,1.5c-0.6,0.6-1.3,1.3-1.9,2
		c-0.7,0.7-1.3,1.4-1.9,2.1c-0.6,0.7-1.1,1.3-1.6,1.8c-0.5,0.5-0.8,0.9-1,1.1c-0.2,0.7-0.3,1.4-0.5,2c-0.2,0.7-0.3,1.3-0.4,2
		c0.5-0.2,1.1-0.4,1.8-0.8c0.7-0.4,1.4-0.8,2.1-1.3c0.7-0.5,1.4-1,2-1.5c0.6-0.5,1.2-0.9,1.6-1.3c0.1-0.1,0.1,0,0.1,0
		c0,0.1,0.1,0.1,0,0.2c-0.3,0.3-0.6,0.5-1,0.9c-0.4,0.3-0.8,0.7-1.3,1s-0.9,0.7-1.4,1s-1,0.6-1.5,0.9c-0.5,0.3-0.9,0.6-1.4,0.8
		c-0.4,0.2-0.9,0.4-1.2,0.5c-0.2,0.8-0.3,1.5-0.4,2.2c-0.1,0.7-0.2,1.4-0.2,2c0,0.2-0.1,0.2-0.2,0.1c-0.1-0.1-0.2-0.3-0.2-0.7
		c0-0.6,0.1-1.1,0.2-1.7c0.1-0.6,0.2-1.2,0.3-1.9c-0.7,0.2-1.2,0.2-1.4,0.1c-0.3-0.1-0.4-0.3-0.4-0.5c0-0.3,0.1-0.6,0.4-0.9
		c0.2-0.4,0.5-0.7,0.8-1.1c0.3-0.4,0.6-0.7,0.9-1.1c0.3-0.3,0.6-0.6,0.7-0.8c0-0.1,0.1-0.3,0.2-0.6c0.1-0.4,0.2-0.8,0.4-1.3
		c0.1-0.5,0.3-1.1,0.5-1.8c0.2-0.7,0.3-1.3,0.5-2s0.3-1.3,0.4-1.9c0.1-0.6,0.2-1.1,0.3-1.6s0.1-0.8,0-1s-0.2-0.3-0.3-0.2
		c-0.2,0.1-0.4,0.2-0.6,0.4s-0.4,0.4-0.6,0.6c-0.2,0.2-0.4,0.5-0.5,0.7C39,8.4,39,8.7,39,8.9z M38.1,21c0.1-0.6,0.2-1.2,0.4-1.8
		s0.3-1.2,0.5-1.8c-0.1,0.2-0.3,0.4-0.6,0.7s-0.5,0.6-0.8,0.9c-0.3,0.3-0.5,0.6-0.7,0.9c-0.2,0.3-0.3,0.6-0.3,0.8
		c0,0.2,0.1,0.4,0.3,0.4C37.1,21.2,37.5,21.2,38.1,21z"/>
	<path d="M51.7,9.3c-0.3,0.6-0.8,1.3-1.3,1.9c-0.5,0.6-1.1,1.2-1.7,1.8c-0.6,0.6-1.2,1.1-1.7,1.6c-0.6,0.5-1.1,0.9-1.5,1.2
		c-0.1,0.4-0.1,0.8-0.2,1.3c0,0.5,0,0.9,0,1.3c0.1,0.4,0.2,0.7,0.5,0.8c0.3,0.1,0.6,0.1,1-0.1c0.4-0.1,0.8-0.4,1.2-0.7
		s0.8-0.6,1.2-1c0.4-0.3,0.7-0.7,1.1-1c0.3-0.3,0.5-0.5,0.7-0.7c0.1-0.1,0.1-0.1,0.2,0c0,0,0,0.1,0,0.1c-0.2,0.2-0.4,0.4-0.8,0.8
		c-0.3,0.3-0.7,0.7-1.2,1c-0.4,0.3-0.9,0.7-1.3,1s-0.9,0.5-1.3,0.6s-0.7,0.1-1-0.1c-0.3-0.1-0.5-0.5-0.6-1c-0.1-0.4-0.1-0.9,0-1.5
		c0.1-0.6,0.2-1.1,0.3-1.8c0.1-0.6,0.3-1.2,0.5-1.9c0.2-0.6,0.4-1.3,0.6-1.8c0.2-0.6,0.5-1.2,0.7-1.7c0.2-0.5,0.5-1,0.7-1.4
		c0.4-0.8,0.9-1.4,1.3-1.8s0.9-0.7,1.3-0.9c0.4-0.2,0.8-0.2,1.1-0.1s0.6,0.3,0.7,0.6c0.1,0.3,0.2,0.7,0.1,1.3
		C52.2,8,52,8.6,51.7,9.3z M48.1,8.6c-0.3,0.5-0.5,1-0.8,1.6c-0.3,0.6-0.5,1.2-0.7,1.8c-0.2,0.6-0.4,1.2-0.6,1.9
		c-0.2,0.6-0.3,1.2-0.4,1.7c0.4-0.3,0.9-0.7,1.4-1.2c0.6-0.5,1.1-1,1.7-1.6c0.6-0.6,1.1-1.1,1.6-1.8c0.5-0.6,0.9-1.2,1.2-1.9
		C51.9,8.6,52,8,52.1,7.5c0.1-0.5,0-0.9-0.1-1.2c-0.1-0.3-0.3-0.5-0.6-0.6c-0.3-0.1-0.6-0.1-1,0.1s-0.8,0.5-1.2,0.9
		S48.5,7.8,48.1,8.6z"/>
	<path d="M50.3,15.9c-0.1,0.2-0.2,0.4-0.2,0.7c0,0.2,0,0.4,0,0.6c0,0.3,0.1,0.6,0.4,0.6c0.2,0.1,0.5,0.1,0.8,0
		c0.3-0.1,0.8-0.3,1.3-0.6c0.5-0.3,1.1-0.7,1.8-1.3c0.1,0,0.1,0,0.1,0c0,0,0,0.1,0,0.2c-0.7,0.6-1.2,1-1.7,1.3
		c-0.5,0.3-0.9,0.5-1.3,0.6c-0.1,0.1-0.3,0.1-0.5,0.1c-0.2,0-0.3,0-0.5,0c-0.2,0-0.3-0.1-0.4-0.2c-0.1-0.1-0.2-0.2-0.3-0.4
		c-0.1-0.2-0.1-0.4,0-0.6c0-0.2,0.1-0.5,0.2-0.7c0.1-0.2,0.2-0.5,0.3-0.7s0.3-0.3,0.5-0.4c0.2-0.1,0.4-0.1,0.5,0
		c0.1,0.1,0,0.3-0.2,0.5C50.8,15.7,50.6,15.8,50.3,15.9z M50.6,15.5c0,0-0.1,0.1-0.1,0.1c0.1,0,0.1-0.1,0.2-0.1s0.1-0.1,0.2-0.2
		c0-0.1,0.1-0.1,0-0.1c0,0,0,0-0.1,0c0,0-0.1,0.1-0.2,0.1C50.6,15.4,50.6,15.5,50.6,15.5z"/>
	<path d="M53.6,15.9c-0.1,0.2-0.2,0.4-0.2,0.7c0,0.2,0,0.4,0,0.6c0,0.3,0.1,0.6,0.4,0.6c0.2,0.1,0.5,0.1,0.8,0
		c0.3-0.1,0.8-0.3,1.3-0.6c0.5-0.3,1.1-0.7,1.8-1.3c0.1,0,0.1,0,0.1,0c0,0,0,0.1,0,0.2c-0.7,0.6-1.2,1-1.7,1.3
		c-0.5,0.3-0.9,0.5-1.3,0.6c-0.1,0.1-0.3,0.1-0.5,0.1c-0.2,0-0.3,0-0.5,0c-0.2,0-0.3-0.1-0.4-0.2c-0.1-0.1-0.2-0.2-0.3-0.4
		c-0.1-0.2-0.1-0.4,0-0.6c0-0.2,0.1-0.5,0.2-0.7c0.1-0.2,0.2-0.5,0.3-0.7s0.3-0.3,0.5-0.4c0.2-0.1,0.4-0.1,0.5,0
		c0.1,0.1,0,0.3-0.2,0.5C54.1,15.7,53.9,15.8,53.6,15.9z M53.9,15.5c0,0-0.1,0.1-0.1,0.1c0.1,0,0.1-0.1,0.2-0.1s0.1-0.1,0.2-0.2
		c0-0.1,0.1-0.1,0-0.1c0,0,0,0-0.1,0c0,0-0.1,0.1-0.2,0.1C53.9,15.4,53.9,15.5,53.9,15.5z"/>
</g>
</svg>
