<?xml version="1.0" encoding="utf-8"?>
<!-- Generator: Adobe Illustrator 22.1.0, SVG Export Plug-In . SVG Version: 6.00 Build 0)  -->
<svg version="1.1" id="Layer_1" xmlns="http://www.w3.org/2000/svg" xmlns:xlink="http://www.w3.org/1999/xlink" x="0px" y="0px"
	 viewBox="0 0 76 21.7" style="enable-background:new 0 0 76 21.7;" xml:space="preserve">
<g>
	<path d="M2.7,14.1c0.2,0,0.4,0,0.6,0s0.2-0.1,0.3-0.1c0.1-0.1,0.1-0.2,0.1-0.3c0-0.1,0-0.3,0-0.6V6.6L3.6,6.5H2.7V6.3h2.4L8.6,12
		V7.5c0-0.3,0-0.5,0-0.6c0-0.1,0-0.2-0.1-0.3c0-0.1-0.1-0.1-0.2-0.1c-0.1,0-0.2,0-0.4,0H7.7V6.3h2.2v0.2H9.6c-0.2,0-0.3,0-0.4,0
		C9.1,6.5,9,6.5,9,6.6S8.9,6.7,8.9,6.9c0,0.1,0,0.3,0,0.6v6.9H8.3L4,7.2v5.6c0,0.3,0,0.6,0,0.7c0,0.2,0,0.3,0.1,0.4S4.2,14,4.4,14
		c0.1,0,0.3,0,0.6,0v0.2H2.7V14.1z"/>
	<path d="M12.1,14h1.2c0.4,0,0.7,0,1,0c0.3,0,0.6-0.1,0.8-0.2c0.2-0.1,0.4-0.3,0.6-0.6s0.2-0.7,0.2-1.2h0.2v2.4h-6v-0.2h0.6V6.5H10
		V6.3h6l0,2h-0.2c-0.1-0.4-0.2-0.8-0.3-1s-0.4-0.4-0.6-0.5c-0.2-0.1-0.5-0.2-0.8-0.2c-0.3,0-0.6,0-1,0h-1.1V10h0.3
		c0.2,0,0.5,0,0.7,0s0.3-0.1,0.5-0.2s0.2-0.2,0.3-0.4s0.1-0.5,0.1-0.8h0.2v3h-0.2c0-0.3,0-0.5-0.1-0.7c-0.1-0.2-0.1-0.3-0.2-0.4
		c-0.1-0.1-0.2-0.2-0.3-0.2c-0.1,0-0.3,0-0.5,0h-0.7V14z"/>
	<path d="M18.5,14h1.2c0.4,0,0.7,0,1,0c0.3,0,0.6-0.1,0.8-0.2c0.2-0.1,0.4-0.3,0.6-0.6c0.1-0.3,0.2-0.7,0.2-1.2h0.2v2.4h-6v-0.2H17
		V6.5h-0.6V6.3h6l0,2h-0.2c-0.1-0.4-0.2-0.8-0.3-1s-0.4-0.4-0.6-0.5c-0.2-0.1-0.5-0.2-0.8-0.2c-0.3,0-0.6,0-1,0h-1.1V10h0.3
		c0.2,0,0.5,0,0.7,0s0.3-0.1,0.5-0.2s0.2-0.2,0.3-0.4s0.1-0.5,0.1-0.8h0.2v3h-0.2c0-0.3,0-0.5-0.1-0.7c-0.1-0.2-0.1-0.3-0.2-0.4
		c-0.1-0.1-0.2-0.2-0.3-0.2c-0.1,0-0.3,0-0.5,0h-0.7V14z"/>
	<path d="M28.3,14.3c0-0.1,0-0.1,0-0.2s0-0.2,0-0.2c0-0.1-0.1-0.1-0.1-0.2c0,0-0.1-0.1-0.2-0.1c0,0-0.1,0-0.2,0.1
		c-0.1,0-0.1,0.1-0.2,0.2c-0.2,0.1-0.4,0.3-0.6,0.4c-0.3,0.1-0.5,0.2-0.9,0.2c-0.5,0-0.9-0.1-1.3-0.3s-0.7-0.5-1-0.9
		c-0.3-0.4-0.5-0.8-0.6-1.3c-0.1-0.5-0.2-1-0.2-1.5s0.1-1.1,0.2-1.6c0.1-0.5,0.3-1,0.6-1.4c0.3-0.4,0.6-0.7,1-1
		c0.4-0.2,0.8-0.4,1.3-0.4c0.2,0,0.4,0,0.6,0.1s0.3,0.1,0.5,0.2c0.1,0.1,0.3,0.2,0.4,0.2c0.1,0.1,0.3,0.1,0.4,0.1
		c0.1,0,0.2,0,0.2-0.1c0-0.1,0.1-0.1,0.1-0.2h0.2v2.4h-0.2c0-0.3-0.1-0.6-0.2-0.9c-0.1-0.3-0.2-0.6-0.4-0.8C27.5,7,27.3,6.8,27,6.6
		c-0.2-0.1-0.5-0.2-0.7-0.2s-0.5,0.1-0.7,0.2c-0.2,0.1-0.3,0.3-0.5,0.5c-0.1,0.2-0.2,0.5-0.3,0.8c-0.1,0.3-0.1,0.6-0.2,0.9
		s-0.1,0.6-0.1,0.9c0,0.3,0,0.5,0,0.8c0,0.4,0,0.8,0.1,1.2c0,0.4,0.1,0.8,0.3,1.2c0.1,0.3,0.3,0.6,0.6,0.9c0.3,0.2,0.6,0.3,1,0.3
		c0.2,0,0.4-0.1,0.6-0.3c0.2-0.2,0.4-0.4,0.5-0.6c0.1-0.3,0.3-0.5,0.4-0.8s0.2-0.6,0.2-0.8h0.2v2.9H28.3z"/>
	<path d="M31.3,10.3v3.8h0.8v0.2h-2.9v-0.2h0.7l-0.1-7.6h-0.7V6.3h2.9v0.2h-0.8v3.6h3.3V6.5h-0.8V6.3h2.9v0.2h-0.8v7.6h0.8v0.2h-2.9
		v-0.2h0.8v-3.8H31.3z"/>
	<path d="M36.6,14.1c0.2,0,0.3,0,0.4,0c0.1,0,0.2-0.1,0.3-0.1c0.1-0.1,0.1-0.2,0.2-0.3s0.1-0.3,0.2-0.5c0.3-1.2,0.7-2.3,1-3.5
		c0.4-1.2,0.7-2.3,1.1-3.5h0.4l2.6,7.9h0.5v0.2h-2.9v-0.2h0.8l-0.8-2.4h-2.1l-0.1,0.2c0,0.1-0.1,0.3-0.1,0.5
		c-0.1,0.2-0.1,0.4-0.2,0.6c-0.1,0.2-0.1,0.4-0.1,0.5c0,0.2-0.1,0.3-0.1,0.3c0,0.1,0,0.2,0.1,0.2c0.1,0,0.2,0.1,0.3,0.1
		c0.1,0,0.2,0,0.3,0c0.1,0,0.2,0,0.3,0h0v0.2h-2.1V14.1z M38.4,11.4h2l-1-3.1L38.4,11.4z"/>
	<path d="M53.7,14.1h0.7v0.2h-3.2v-0.2h0.8l-2.5-3.9l-0.1,0.2v3.6h0.7v0.2h-2.7v-0.2h0.7V6.5h-0.7V6.3h2.7v0.2h-0.6v3.6l2.4-2.6v0
		c0.3-0.4,0.5-0.6,0.5-0.8c0-0.1,0-0.2-0.1-0.2c-0.1,0-0.2,0-0.3,0h-0.5V6.3h2.8v0.2c-0.6,0-1.1,0.1-1.5,0.4c-0.3,0.3-0.6,0.7-1,1.1
		c-0.4,0.4-0.7,0.8-1.2,1.3L53.7,14.1z"/>
	<path d="M60.2,11.6v2.7h-5.9v-0.2h0.8V6.5h-0.8V6.3h3v0.2h-0.8v7.6h1.4c0.4,0,0.7,0,1-0.1c0.3,0,0.5-0.1,0.7-0.3
		c0.2-0.2,0.3-0.4,0.4-0.7c0.1-0.3,0.1-0.8,0.1-1.4H60.2z"/>
	<path d="M62.5,14h1.2c0.4,0,0.7,0,1,0c0.3,0,0.6-0.1,0.8-0.2c0.2-0.1,0.4-0.3,0.6-0.6c0.1-0.3,0.2-0.7,0.2-1.2h0.2v2.4h-6v-0.2h0.6
		V6.5h-0.6V6.3h6l0,2h-0.2c-0.1-0.4-0.2-0.8-0.3-1s-0.4-0.4-0.6-0.5c-0.2-0.1-0.5-0.2-0.8-0.2c-0.3,0-0.6,0-1,0h-1.1V10h0.3
		c0.2,0,0.5,0,0.7,0c0.2,0,0.3-0.1,0.5-0.2c0.1-0.1,0.2-0.2,0.3-0.4c0.1-0.2,0.1-0.5,0.1-0.8h0.2v3h-0.2c0-0.3,0-0.5-0.1-0.7
		c-0.1-0.2-0.1-0.3-0.2-0.4c-0.1-0.1-0.2-0.2-0.3-0.2c-0.1,0-0.3,0-0.5,0h-0.7V14z"/>
	<path d="M68.9,14h1.2c0.4,0,0.7,0,1,0c0.3,0,0.6-0.1,0.8-0.2c0.2-0.1,0.4-0.3,0.6-0.6c0.1-0.3,0.2-0.7,0.2-1.2h0.2v2.4h-6v-0.2h0.6
		V6.5h-0.6V6.3h6l0,2h-0.2c-0.1-0.4-0.2-0.8-0.3-1S72,6.8,71.8,6.7c-0.2-0.1-0.5-0.2-0.8-0.2c-0.3,0-0.6,0-1,0h-1.1V10h0.3
		c0.2,0,0.5,0,0.7,0c0.2,0,0.3-0.1,0.5-0.2c0.1-0.1,0.2-0.2,0.3-0.4c0.1-0.2,0.1-0.5,0.1-0.8H71v3h-0.2c0-0.3,0-0.5-0.1-0.7
		c-0.1-0.2-0.1-0.3-0.2-0.4c-0.1-0.1-0.2-0.2-0.3-0.2c-0.1,0-0.3,0-0.5,0h-0.7V14z"/>
</g>
</svg>
